<svg width="136" height="62" viewBox="0 0 136 62" fill="none" xmlns="http://www.w3.org/2000/svg">
<g filter="url(#filter0_d_83_531)">
<path d="M117 10C117 7.23858 114.761 5 112 5H16.6362C16.059 5 15.51 5.24938 15.1302 5.68404L1.14985 21.684C0.49128 22.4378 0.49128 23.5622 1.14985 24.316L15.1302 40.316C15.51 40.7506 16.059 41 16.6362 41H113C115.209 41 117 39.2091 117 37V10Z" fill="url(#paint0_linear_83_531)"/>
<path d="M107 47.7485L113.499 41.0002L107 41.0005L107 47.7485Z" fill="#8C9CAC"/>
<path d="M33.1477 28V16.3636H37.5114C38.4053 16.3636 39.1553 16.5303 39.7614 16.8636C40.3712 17.197 40.8314 17.6553 41.142 18.2386C41.4564 18.8182 41.6136 19.4773 41.6136 20.2159C41.6136 20.9621 41.4564 21.625 41.142 22.2045C40.8277 22.7841 40.3636 23.2405 39.75 23.5739C39.1364 23.9034 38.3807 24.0682 37.483 24.0682H34.5909V22.3352H37.1989C37.7216 22.3352 38.1496 22.2443 38.483 22.0625C38.8163 21.8807 39.0625 21.6307 39.2216 21.3125C39.3845 20.9943 39.4659 20.6288 39.4659 20.2159C39.4659 19.803 39.3845 19.4394 39.2216 19.125C39.0625 18.8106 38.8144 18.5663 38.4773 18.392C38.1439 18.214 37.714 18.125 37.1875 18.125H35.2557V28H33.1477ZM47.0355 28.1705C46.1832 28.1705 45.4446 27.983 44.8196 27.608C44.1946 27.233 43.7098 26.7083 43.3651 26.0341C43.0241 25.3598 42.8537 24.572 42.8537 23.6705C42.8537 22.7689 43.0241 21.9792 43.3651 21.3011C43.7098 20.6231 44.1946 20.0966 44.8196 19.7216C45.4446 19.3466 46.1832 19.1591 47.0355 19.1591C47.8878 19.1591 48.6264 19.3466 49.2514 19.7216C49.8764 20.0966 50.3594 20.6231 50.7003 21.3011C51.045 21.9792 51.2173 22.7689 51.2173 23.6705C51.2173 24.572 51.045 25.3598 50.7003 26.0341C50.3594 26.7083 49.8764 27.233 49.2514 27.608C48.6264 27.983 47.8878 28.1705 47.0355 28.1705ZM47.0469 26.5227C47.509 26.5227 47.8954 26.3958 48.206 26.142C48.5166 25.8845 48.7476 25.5398 48.8991 25.108C49.0545 24.6761 49.1321 24.1951 49.1321 23.6648C49.1321 23.1307 49.0545 22.6477 48.8991 22.2159C48.7476 21.7803 48.5166 21.4337 48.206 21.1761C47.8954 20.9186 47.509 20.7898 47.0469 20.7898C46.5734 20.7898 46.1795 20.9186 45.8651 21.1761C45.5545 21.4337 45.3215 21.7803 45.1662 22.2159C45.0147 22.6477 44.9389 23.1307 44.9389 23.6648C44.9389 24.1951 45.0147 24.6761 45.1662 25.108C45.3215 25.5398 45.5545 25.8845 45.8651 26.142C46.1795 26.3958 46.5734 26.5227 47.0469 26.5227ZM52.9631 31.2727V19.2727H54.9858V20.7159H55.1051C55.2112 20.5038 55.3608 20.2784 55.554 20.0398C55.7472 19.7973 56.0085 19.5909 56.3381 19.4205C56.6676 19.2462 57.0881 19.1591 57.5994 19.1591C58.2737 19.1591 58.8816 19.3314 59.4233 19.6761C59.9688 20.017 60.4006 20.5227 60.7188 21.1932C61.0407 21.8598 61.2017 22.678 61.2017 23.6477C61.2017 24.6061 61.0445 25.4205 60.7301 26.0909C60.4157 26.7614 59.9877 27.2727 59.446 27.625C58.9044 27.9773 58.2907 28.1534 57.6051 28.1534C57.1051 28.1534 56.6903 28.0701 56.3608 27.9034C56.0313 27.7367 55.7661 27.536 55.5653 27.3011C55.3684 27.0625 55.215 26.8371 55.1051 26.625H55.0199V31.2727H52.9631ZM54.9801 23.6364C54.9801 24.2008 55.0597 24.6951 55.2188 25.1193C55.3816 25.5436 55.6146 25.875 55.9176 26.1136C56.2244 26.3485 56.5956 26.4659 57.0312 26.4659C57.4858 26.4659 57.8665 26.3447 58.1733 26.1023C58.4801 25.8561 58.7112 25.5208 58.8665 25.0966C59.0256 24.6686 59.1051 24.1818 59.1051 23.6364C59.1051 23.0947 59.0275 22.6136 58.8722 22.1932C58.7169 21.7727 58.4858 21.4432 58.179 21.2045C57.8722 20.9659 57.4896 20.8466 57.0312 20.8466C56.5919 20.8466 56.2188 20.9621 55.9119 21.1932C55.6051 21.4242 55.3722 21.7481 55.2131 22.1648C55.0578 22.5814 54.9801 23.072 54.9801 23.6364ZM68.5256 24.3295V19.2727H70.5824V28H68.5881V26.4489H68.4972C68.3002 26.9375 67.9763 27.3371 67.5256 27.6477C67.0786 27.9583 66.5275 28.1136 65.8722 28.1136C65.3002 28.1136 64.7945 27.9867 64.3551 27.733C63.9195 27.4754 63.5786 27.1023 63.3324 26.6136C63.0862 26.1212 62.9631 25.5265 62.9631 24.8295V19.2727H65.0199V24.5114C65.0199 25.0644 65.1714 25.5038 65.4744 25.8295C65.7775 26.1553 66.1752 26.3182 66.6676 26.3182C66.9706 26.3182 67.2642 26.2443 67.5483 26.0966C67.8324 25.9489 68.0653 25.7292 68.2472 25.4375C68.4328 25.142 68.5256 24.7727 68.5256 24.3295ZM74.7543 16.3636V28H72.6974V16.3636H74.7543ZM79.3807 28.1761C78.8277 28.1761 78.3295 28.0777 77.8864 27.8807C77.447 27.6799 77.0985 27.3845 76.8409 26.9943C76.5871 26.6042 76.4602 26.1231 76.4602 25.5511C76.4602 25.0587 76.5511 24.6515 76.733 24.3295C76.9148 24.0076 77.1629 23.75 77.4773 23.5568C77.7917 23.3636 78.1458 23.2178 78.5398 23.1193C78.9375 23.017 79.3485 22.9432 79.7727 22.8977C80.2841 22.8447 80.6989 22.7973 81.017 22.7557C81.3352 22.7102 81.5663 22.642 81.7102 22.5511C81.858 22.4564 81.9318 22.3106 81.9318 22.1136V22.0795C81.9318 21.6515 81.8049 21.3201 81.5511 21.0852C81.2973 20.8504 80.9318 20.733 80.4545 20.733C79.9508 20.733 79.5511 20.8428 79.2557 21.0625C78.964 21.2822 78.767 21.5417 78.6648 21.8409L76.7443 21.5682C76.8958 21.0379 77.1458 20.5947 77.4943 20.2386C77.8428 19.8788 78.2689 19.6098 78.7727 19.4318C79.2765 19.25 79.8333 19.1591 80.4432 19.1591C80.8636 19.1591 81.2822 19.2083 81.6989 19.3068C82.1155 19.4053 82.4962 19.5682 82.8409 19.7955C83.1856 20.0189 83.4621 20.3239 83.6705 20.7102C83.8826 21.0966 83.9886 21.5795 83.9886 22.1591V28H82.0114V26.8011H81.9432C81.8182 27.0436 81.642 27.2708 81.4148 27.483C81.1913 27.6913 80.9091 27.8598 80.5682 27.9886C80.2311 28.1136 79.8352 28.1761 79.3807 28.1761ZM79.9148 26.6648C80.3277 26.6648 80.6856 26.5833 80.9886 26.4205C81.2917 26.2538 81.5246 26.0341 81.6875 25.7614C81.8542 25.4886 81.9375 25.1913 81.9375 24.8693V23.8409C81.8731 23.8939 81.7633 23.9432 81.608 23.9886C81.4564 24.0341 81.286 24.0739 81.0966 24.108C80.9072 24.142 80.7197 24.1723 80.5341 24.1989C80.3485 24.2254 80.1875 24.2481 80.0511 24.267C79.7443 24.3087 79.4697 24.3769 79.2273 24.4716C78.9848 24.5663 78.7936 24.6989 78.6534 24.8693C78.5133 25.036 78.4432 25.2519 78.4432 25.517C78.4432 25.8958 78.5814 26.1818 78.858 26.375C79.1345 26.5682 79.4867 26.6648 79.9148 26.6648ZM86.0568 28V19.2727H88.0511V20.7273H88.142C88.3011 20.2235 88.5739 19.8352 88.9602 19.5625C89.3504 19.286 89.7955 19.1477 90.2955 19.1477C90.4091 19.1477 90.536 19.1534 90.6761 19.1648C90.8201 19.1723 90.9394 19.1856 91.0341 19.2045V21.0966C90.947 21.0663 90.8087 21.0398 90.6193 21.017C90.4337 20.9905 90.2538 20.9773 90.0795 20.9773C89.7045 20.9773 89.3674 21.0587 89.0682 21.2216C88.7727 21.3807 88.5398 21.6023 88.3693 21.8864C88.1989 22.1705 88.1136 22.4981 88.1136 22.8693V28H86.0568Z" fill="white"/>
</g>
<defs>
<filter id="filter0_d_83_531" x="0.555883" y="0.9" width="134.544" height="60.9485" filterUnits="userSpaceOnUse" color-interpolation-filters="sRGB">
<feFlood flood-opacity="0" result="BackgroundImageFix"/>
<feColorMatrix in="SourceAlpha" type="matrix" values="0 0 0 0 0 0 0 0 0 0 0 0 0 0 0 0 0 0 127 0" result="hardAlpha"/>
<feOffset dx="9" dy="5"/>
<feGaussianBlur stdDeviation="4.55"/>
<feComposite in2="hardAlpha" operator="out"/>
<feColorMatrix type="matrix" values="0 0 0 0 0 0 0 0 0 0 0 0 0 0 0 0 0 0 0.25 0"/>
<feBlend mode="normal" in2="BackgroundImageFix" result="effect1_dropShadow_83_531"/>
<feBlend mode="normal" in="SourceGraphic" in2="effect1_dropShadow_83_531" result="shape"/>
</filter>
<linearGradient id="paint0_linear_83_531" x1="11.1246" y1="52" x2="167.601" y2="-11.7465" gradientUnits="userSpaceOnUse">
<stop stop-color="#2E95F4"/>
<stop offset="1" stop-color="#21619C"/>
</linearGradient>
</defs>
</svg>
